<?xml version="1.0" encoding="UTF-8" standalone="no"?>
<!DOCTYPE svg PUBLIC "-//W3C//DTD SVG 1.1//EN"
 "http://www.w3.org/Graphics/SVG/1.1/DTD/svg11.dtd">
<!-- Generated by graphviz version 12.2.0 (20241103.1931)
 -->
<!-- Title: model_graph Pages: 1 -->
<svg width="567pt" height="385pt"
 viewBox="0.00 0.00 566.75 385.00" xmlns="http://www.w3.org/2000/svg" xmlns:xlink="http://www.w3.org/1999/xlink">
<g id="graph0" class="graph" transform="scale(1 1) rotate(0) translate(4 381)">
<title>model_graph</title>
<polygon fill="white" stroke="none" points="-4,4 -4,-381 562.75,-381 562.75,4 -4,4"/>
<g id="clust1" class="cluster">
<title>cluster_movies</title>
<path fill="none" stroke="#698b22" d="M20,-8C20,-8 538.75,-8 538.75,-8 544.75,-8 550.75,-14 550.75,-20 550.75,-20 550.75,-357 550.75,-357 550.75,-363 544.75,-369 538.75,-369 538.75,-369 20,-369 20,-369 14,-369 8,-363 8,-357 8,-357 8,-20 8,-20 8,-14 14,-8 20,-8"/>
<text text-anchor="start" x="208.88" y="-352.5" font-family="Roboto" font-size="8.00"> &#160;&#160;&#160;&#160;&#160;&#160;&#160;&#160;&#160;</text>
<text text-anchor="start" x="231.38" y="-352.5" font-family="Roboto" font-size="10.00"> &#160;&#160;&#160;&#160;&#160;&#160;&#160;&#160;&#160;</text>
<text text-anchor="start" x="261.38" y="-352.5" font-family="Roboto" font-weight="bold" font-size="10.00">movies</text>
<text text-anchor="start" x="297.38" y="-352.5" font-family="Roboto" font-size="10.00"> &#160;&#160;&#160;&#160;&#160;&#160;&#160;&#160;&#160;</text>
<text text-anchor="start" x="327.38" y="-352.5" font-family="Roboto" font-size="8.00"> &#160;&#160;&#160;&#160;&#160;&#160;&#160;&#160;&#160;</text>
</g>
<!-- movies_models_Genre -->
<g id="node1" class="node">
<title>movies_models_Genre</title>
<polygon fill="white" stroke="none" points="384.88,-194.12 384.88,-247.88 517.88,-247.88 517.88,-194.12 384.88,-194.12"/>
<polygon fill="#1b563f" stroke="none" points="385.88,-224.12 385.88,-246.88 516.88,-246.88 516.88,-224.12 385.88,-224.12"/>
<text text-anchor="start" x="411.25" y="-233.38" font-family="Roboto" font-size="8.00"> &#160;&#160;&#160;&#160;&#160;</text>
<text text-anchor="start" x="424.75" y="-233.38" font-family="Roboto" font-weight="bold" font-size="10.00" fill="white"> &#160;&#160;&#160;&#160;&#160;Genre &#160;&#160;&#160;&#160;&#160;</text>
<text text-anchor="start" x="387.88" y="-215.53" font-family="Roboto" font-size="8.00"> &#160;&#160;&#160;&#160;&#160;</text>
<text text-anchor="start" x="401.38" y="-215.53" font-family="Roboto" font-weight="bold" font-size="8.00">id</text>
<text text-anchor="start" x="408.88" y="-215.53" font-family="Roboto" font-size="8.00"> &#160;&#160;&#160;&#160;&#160;</text>
<text text-anchor="start" x="439.12" y="-215.53" font-family="Roboto" font-size="8.00"> &#160;&#160;&#160;&#160;&#160;</text>
<text text-anchor="start" x="452.62" y="-215.53" font-family="Roboto" font-weight="bold" font-size="8.00">IntegerField</text>
<text text-anchor="start" x="501.38" y="-215.53" font-family="Roboto" font-size="8.00"> &#160;&#160;&#160;&#160;&#160;</text>
<text text-anchor="start" x="387.88" y="-201.03" font-family="Roboto" font-size="8.00"> &#160;&#160;&#160;&#160;&#160;</text>
<text text-anchor="start" x="401.38" y="-201.03" font-family="Roboto" font-size="8.00">name</text>
<text text-anchor="start" x="421.62" y="-201.03" font-family="Roboto" font-size="8.00"> &#160;&#160;&#160;&#160;&#160;</text>
<text text-anchor="start" x="439.12" y="-201.03" font-family="Roboto" font-size="8.00"> &#160;&#160;&#160;&#160;&#160;</text>
<text text-anchor="start" x="452.62" y="-201.03" font-family="Roboto" font-size="8.00">CharField</text>
<text text-anchor="start" x="485.62" y="-201.03" font-family="Roboto" font-size="8.00"> &#160;&#160;&#160;&#160;&#160;</text>
<polygon fill="none" stroke="black" points="384.88,-194.12 384.88,-247.88 517.88,-247.88 517.88,-194.12 384.88,-194.12"/>
</g>
<!-- movies_models_Provider -->
<g id="node2" class="node">
<title>movies_models_Provider</title>
<polygon fill="white" stroke="none" points="368,-99.88 368,-168.12 534.75,-168.12 534.75,-99.88 368,-99.88"/>
<polygon fill="#1b563f" stroke="none" points="369,-144.38 369,-167.12 533.75,-167.12 533.75,-144.38 369,-144.38"/>
<text text-anchor="start" x="405.25" y="-153.62" font-family="Roboto" font-size="8.00"> &#160;&#160;&#160;&#160;&#160;</text>
<text text-anchor="start" x="418.75" y="-153.62" font-family="Roboto" font-weight="bold" font-size="10.00" fill="white"> &#160;&#160;&#160;&#160;&#160;Provider &#160;&#160;&#160;&#160;&#160;</text>
<text text-anchor="start" x="371" y="-135.78" font-family="Roboto" font-size="8.00"> &#160;&#160;&#160;&#160;&#160;</text>
<text text-anchor="start" x="384.5" y="-135.78" font-family="Roboto" font-weight="bold" font-size="8.00">provider_id</text>
<text text-anchor="start" x="431.75" y="-135.78" font-family="Roboto" font-size="8.00"> &#160;&#160;&#160;&#160;&#160;</text>
<text text-anchor="start" x="456" y="-135.78" font-family="Roboto" font-size="8.00"> &#160;&#160;&#160;&#160;&#160;</text>
<text text-anchor="start" x="469.5" y="-135.78" font-family="Roboto" font-weight="bold" font-size="8.00">IntegerField</text>
<text text-anchor="start" x="518.25" y="-135.78" font-family="Roboto" font-size="8.00"> &#160;&#160;&#160;&#160;&#160;</text>
<text text-anchor="start" x="371" y="-121.28" font-family="Roboto" font-size="8.00"> &#160;&#160;&#160;&#160;&#160;</text>
<text text-anchor="start" x="384.5" y="-121.28" font-family="Roboto" font-size="8.00">logo_path</text>
<text text-anchor="start" x="420.5" y="-121.28" font-family="Roboto" font-size="8.00"> &#160;&#160;&#160;&#160;&#160;</text>
<text text-anchor="start" x="456" y="-121.28" font-family="Roboto" font-size="8.00"> &#160;&#160;&#160;&#160;&#160;</text>
<text text-anchor="start" x="469.5" y="-121.28" font-family="Roboto" font-size="8.00">URLField</text>
<text text-anchor="start" x="500.25" y="-121.28" font-family="Roboto" font-size="8.00"> &#160;&#160;&#160;&#160;&#160;</text>
<text text-anchor="start" x="371" y="-106.78" font-family="Roboto" font-size="8.00"> &#160;&#160;&#160;&#160;&#160;</text>
<text text-anchor="start" x="384.5" y="-106.78" font-family="Roboto" font-size="8.00">provider_name</text>
<text text-anchor="start" x="438.5" y="-106.78" font-family="Roboto" font-size="8.00"> &#160;&#160;&#160;&#160;&#160;</text>
<text text-anchor="start" x="456" y="-106.78" font-family="Roboto" font-size="8.00"> &#160;&#160;&#160;&#160;&#160;</text>
<text text-anchor="start" x="469.5" y="-106.78" font-family="Roboto" font-size="8.00">CharField</text>
<text text-anchor="start" x="502.5" y="-106.78" font-family="Roboto" font-size="8.00"> &#160;&#160;&#160;&#160;&#160;</text>
<polygon fill="none" stroke="black" points="368,-99.88 368,-168.12 534.75,-168.12 534.75,-99.88 368,-99.88"/>
</g>
<!-- movies_models_Movie -->
<g id="node3" class="node">
<title>movies_models_Movie</title>
<polygon fill="white" stroke="none" points="24,-20.12 24,-247.88 211,-247.88 211,-20.12 24,-20.12"/>
<polygon fill="#1b563f" stroke="none" points="25,-224.12 25,-246.88 210,-246.88 210,-224.12 25,-224.12"/>
<text text-anchor="start" x="77.75" y="-233.38" font-family="Roboto" font-size="8.00"> &#160;&#160;&#160;&#160;&#160;</text>
<text text-anchor="start" x="91.25" y="-233.38" font-family="Roboto" font-weight="bold" font-size="10.00" fill="white"> &#160;&#160;&#160;&#160;&#160;Movie &#160;&#160;&#160;&#160;&#160;</text>
<text text-anchor="start" x="27" y="-215.53" font-family="Roboto" font-size="8.00"> &#160;&#160;&#160;&#160;&#160;</text>
<text text-anchor="start" x="40.5" y="-215.53" font-family="Roboto" font-weight="bold" font-size="8.00">id</text>
<text text-anchor="start" x="48" y="-215.53" font-family="Roboto" font-size="8.00"> &#160;&#160;&#160;&#160;&#160;</text>
<text text-anchor="start" x="130.75" y="-215.53" font-family="Roboto" font-size="8.00"> &#160;&#160;&#160;&#160;&#160;</text>
<text text-anchor="start" x="144.25" y="-215.53" font-family="Roboto" font-weight="bold" font-size="8.00">BigAutoField</text>
<text text-anchor="start" x="194.5" y="-215.53" font-family="Roboto" font-size="8.00"> &#160;&#160;&#160;&#160;&#160;</text>
<text text-anchor="start" x="27" y="-201.03" font-family="Roboto" font-size="8.00"> &#160;&#160;&#160;&#160;&#160;</text>
<text text-anchor="start" x="40.5" y="-201.03" font-family="Roboto" font-size="8.00">movie_id</text>
<text text-anchor="start" x="72" y="-201.03" font-family="Roboto" font-size="8.00"> &#160;&#160;&#160;&#160;&#160;</text>
<text text-anchor="start" x="130.75" y="-201.03" font-family="Roboto" font-size="8.00"> &#160;&#160;&#160;&#160;&#160;</text>
<text text-anchor="start" x="144.25" y="-201.03" font-family="Roboto" font-size="8.00">IntegerField</text>
<text text-anchor="start" x="187.75" y="-201.03" font-family="Roboto" font-size="8.00"> &#160;&#160;&#160;&#160;&#160;</text>
<text text-anchor="start" x="27" y="-186.53" font-family="Roboto" font-size="8.00"> &#160;&#160;&#160;&#160;&#160;</text>
<text text-anchor="start" x="40.5" y="-186.53" font-family="Roboto" font-size="8.00">original_language</text>
<text text-anchor="start" x="103.5" y="-186.53" font-family="Roboto" font-size="8.00"> &#160;&#160;&#160;&#160;&#160;</text>
<text text-anchor="start" x="130.75" y="-186.53" font-family="Roboto" font-size="8.00"> &#160;&#160;&#160;&#160;&#160;</text>
<text text-anchor="start" x="144.25" y="-186.53" font-family="Roboto" font-size="8.00">CharField</text>
<text text-anchor="start" x="177.25" y="-186.53" font-family="Roboto" font-size="8.00"> &#160;&#160;&#160;&#160;&#160;</text>
<text text-anchor="start" x="27" y="-172.03" font-family="Roboto" font-size="8.00"> &#160;&#160;&#160;&#160;&#160;</text>
<text text-anchor="start" x="40.5" y="-172.03" font-family="Roboto" font-size="8.00">original_title</text>
<text text-anchor="start" x="84" y="-172.03" font-family="Roboto" font-size="8.00"> &#160;&#160;&#160;&#160;&#160;</text>
<text text-anchor="start" x="130.75" y="-172.03" font-family="Roboto" font-size="8.00"> &#160;&#160;&#160;&#160;&#160;</text>
<text text-anchor="start" x="144.25" y="-172.03" font-family="Roboto" font-size="8.00">CharField</text>
<text text-anchor="start" x="177.25" y="-172.03" font-family="Roboto" font-size="8.00"> &#160;&#160;&#160;&#160;&#160;</text>
<text text-anchor="start" x="27" y="-157.53" font-family="Roboto" font-size="8.00"> &#160;&#160;&#160;&#160;&#160;</text>
<text text-anchor="start" x="40.5" y="-157.53" font-family="Roboto" font-size="8.00">overview</text>
<text text-anchor="start" x="72" y="-157.53" font-family="Roboto" font-size="8.00"> &#160;&#160;&#160;&#160;&#160;</text>
<text text-anchor="start" x="130.75" y="-157.53" font-family="Roboto" font-size="8.00"> &#160;&#160;&#160;&#160;&#160;</text>
<text text-anchor="start" x="144.25" y="-157.53" font-family="Roboto" font-size="8.00">TextField</text>
<text text-anchor="start" x="175.75" y="-157.53" font-family="Roboto" font-size="8.00"> &#160;&#160;&#160;&#160;&#160;</text>
<text text-anchor="start" x="27" y="-143.03" font-family="Roboto" font-size="8.00"> &#160;&#160;&#160;&#160;&#160;</text>
<text text-anchor="start" x="40.5" y="-143.03" font-family="Roboto" font-size="8.00" fill="#7b7b7b">picture_url</text>
<text text-anchor="start" x="78.75" y="-143.03" font-family="Roboto" font-size="8.00"> &#160;&#160;&#160;&#160;&#160;</text>
<text text-anchor="start" x="130.75" y="-143.03" font-family="Roboto" font-size="8.00"> &#160;&#160;&#160;&#160;&#160;</text>
<text text-anchor="start" x="144.25" y="-143.03" font-family="Roboto" font-size="8.00" fill="#7b7b7b">JSONField</text>
<text text-anchor="start" x="179.5" y="-143.03" font-family="Roboto" font-size="8.00"> &#160;&#160;&#160;&#160;&#160;</text>
<text text-anchor="start" x="27" y="-128.53" font-family="Roboto" font-size="8.00"> &#160;&#160;&#160;&#160;&#160;</text>
<text text-anchor="start" x="40.5" y="-128.53" font-family="Roboto" font-size="8.00" fill="#7b7b7b">poster_palette</text>
<text text-anchor="start" x="93.75" y="-128.53" font-family="Roboto" font-size="8.00"> &#160;&#160;&#160;&#160;&#160;</text>
<text text-anchor="start" x="130.75" y="-128.53" font-family="Roboto" font-size="8.00"> &#160;&#160;&#160;&#160;&#160;</text>
<text text-anchor="start" x="144.25" y="-128.53" font-family="Roboto" font-size="8.00" fill="#7b7b7b">JSONField</text>
<text text-anchor="start" x="179.5" y="-128.53" font-family="Roboto" font-size="8.00"> &#160;&#160;&#160;&#160;&#160;</text>
<text text-anchor="start" x="27" y="-114.03" font-family="Roboto" font-size="8.00"> &#160;&#160;&#160;&#160;&#160;</text>
<text text-anchor="start" x="40.5" y="-114.03" font-family="Roboto" font-size="8.00">poster_path</text>
<text text-anchor="start" x="84.75" y="-114.03" font-family="Roboto" font-size="8.00"> &#160;&#160;&#160;&#160;&#160;</text>
<text text-anchor="start" x="130.75" y="-114.03" font-family="Roboto" font-size="8.00"> &#160;&#160;&#160;&#160;&#160;</text>
<text text-anchor="start" x="144.25" y="-114.03" font-family="Roboto" font-size="8.00">URLField</text>
<text text-anchor="start" x="175" y="-114.03" font-family="Roboto" font-size="8.00"> &#160;&#160;&#160;&#160;&#160;</text>
<text text-anchor="start" x="27" y="-99.53" font-family="Roboto" font-size="8.00"> &#160;&#160;&#160;&#160;&#160;</text>
<text text-anchor="start" x="40.5" y="-99.53" font-family="Roboto" font-size="8.00">release_date</text>
<text text-anchor="start" x="87.75" y="-99.53" font-family="Roboto" font-size="8.00"> &#160;&#160;&#160;&#160;&#160;</text>
<text text-anchor="start" x="130.75" y="-99.53" font-family="Roboto" font-size="8.00"> &#160;&#160;&#160;&#160;&#160;</text>
<text text-anchor="start" x="144.25" y="-99.53" font-family="Roboto" font-size="8.00">DateField</text>
<text text-anchor="start" x="178" y="-99.53" font-family="Roboto" font-size="8.00"> &#160;&#160;&#160;&#160;&#160;</text>
<text text-anchor="start" x="27" y="-85.03" font-family="Roboto" font-size="8.00"> &#160;&#160;&#160;&#160;&#160;</text>
<text text-anchor="start" x="40.5" y="-85.03" font-family="Roboto" font-size="8.00" fill="#7b7b7b">reviews</text>
<text text-anchor="start" x="67.5" y="-85.03" font-family="Roboto" font-size="8.00"> &#160;&#160;&#160;&#160;&#160;</text>
<text text-anchor="start" x="130.75" y="-85.03" font-family="Roboto" font-size="8.00"> &#160;&#160;&#160;&#160;&#160;</text>
<text text-anchor="start" x="144.25" y="-85.03" font-family="Roboto" font-size="8.00" fill="#7b7b7b">JSONField</text>
<text text-anchor="start" x="179.5" y="-85.03" font-family="Roboto" font-size="8.00"> &#160;&#160;&#160;&#160;&#160;</text>
<text text-anchor="start" x="27" y="-70.53" font-family="Roboto" font-size="8.00"> &#160;&#160;&#160;&#160;&#160;</text>
<text text-anchor="start" x="40.5" y="-70.53" font-family="Roboto" font-size="8.00">title</text>
<text text-anchor="start" x="54" y="-70.53" font-family="Roboto" font-size="8.00"> &#160;&#160;&#160;&#160;&#160;</text>
<text text-anchor="start" x="130.75" y="-70.53" font-family="Roboto" font-size="8.00"> &#160;&#160;&#160;&#160;&#160;</text>
<text text-anchor="start" x="144.25" y="-70.53" font-family="Roboto" font-size="8.00">CharField</text>
<text text-anchor="start" x="177.25" y="-70.53" font-family="Roboto" font-size="8.00"> &#160;&#160;&#160;&#160;&#160;</text>
<text text-anchor="start" x="27" y="-56.02" font-family="Roboto" font-size="8.00"> &#160;&#160;&#160;&#160;&#160;</text>
<text text-anchor="start" x="40.5" y="-56.02" font-family="Roboto" font-size="8.00">tmdb_vote_average</text>
<text text-anchor="start" x="113.25" y="-56.02" font-family="Roboto" font-size="8.00"> &#160;&#160;&#160;&#160;&#160;</text>
<text text-anchor="start" x="130.75" y="-56.02" font-family="Roboto" font-size="8.00"> &#160;&#160;&#160;&#160;&#160;</text>
<text text-anchor="start" x="144.25" y="-56.02" font-family="Roboto" font-size="8.00">FloatField</text>
<text text-anchor="start" x="178.75" y="-56.02" font-family="Roboto" font-size="8.00"> &#160;&#160;&#160;&#160;&#160;</text>
<text text-anchor="start" x="27" y="-41.52" font-family="Roboto" font-size="8.00"> &#160;&#160;&#160;&#160;&#160;</text>
<text text-anchor="start" x="40.5" y="-41.52" font-family="Roboto" font-size="8.00" fill="#7b7b7b">video_url</text>
<text text-anchor="start" x="72.75" y="-41.52" font-family="Roboto" font-size="8.00"> &#160;&#160;&#160;&#160;&#160;</text>
<text text-anchor="start" x="130.75" y="-41.52" font-family="Roboto" font-size="8.00"> &#160;&#160;&#160;&#160;&#160;</text>
<text text-anchor="start" x="144.25" y="-41.52" font-family="Roboto" font-size="8.00" fill="#7b7b7b">JSONField</text>
<text text-anchor="start" x="179.5" y="-41.52" font-family="Roboto" font-size="8.00"> &#160;&#160;&#160;&#160;&#160;</text>
<text text-anchor="start" x="27" y="-27.02" font-family="Roboto" font-size="8.00"> &#160;&#160;&#160;&#160;&#160;</text>
<text text-anchor="start" x="40.5" y="-27.02" font-family="Roboto" font-size="8.00">watchapedia</text>
<text text-anchor="start" x="86.25" y="-27.02" font-family="Roboto" font-size="8.00"> &#160;&#160;&#160;&#160;&#160;</text>
<text text-anchor="start" x="130.75" y="-27.02" font-family="Roboto" font-size="8.00"> &#160;&#160;&#160;&#160;&#160;</text>
<text text-anchor="start" x="144.25" y="-27.02" font-family="Roboto" font-size="8.00">URLField</text>
<text text-anchor="start" x="175" y="-27.02" font-family="Roboto" font-size="8.00"> &#160;&#160;&#160;&#160;&#160;</text>
<polygon fill="none" stroke="black" points="24,-20.12 24,-247.88 211,-247.88 211,-20.12 24,-20.12"/>
</g>
<!-- movies_models_Movie&#45;&gt;movies_models_Genre -->
<g id="edge1" class="edge">
<title>movies_models_Movie&#45;&gt;movies_models_Genre</title>
<path fill="none" stroke="black" d="M228.94,-162.95C274.07,-174.78 325.38,-188.23 367.24,-199.21"/>
<polygon fill="black" stroke="black" points="228.97,-162.96 220.44,-156.07 223.81,-161.61 219.62,-160.51 219.62,-160.51 219.62,-160.51 223.81,-161.61 218.16,-164.78 228.97,-162.96"/>
<polygon fill="black" stroke="black" points="367.12,-199.18 375.65,-206.06 372.28,-200.53 376.47,-201.63 376.47,-201.63 376.47,-201.63 372.28,-200.53 377.94,-197.36 367.12,-199.18"/>
<text text-anchor="middle" x="289.5" y="-193.28" font-family="Roboto" font-size="8.00"> genre_ids (movies)</text>
</g>
<!-- movies_models_Movie&#45;&gt;movies_models_Provider -->
<g id="edge2" class="edge">
<title>movies_models_Movie&#45;&gt;movies_models_Provider</title>
<path fill="none" stroke="black" d="M229.37,-134C268.37,-134 311.96,-134 350.04,-134"/>
<polygon fill="black" stroke="black" points="229.31,-134 219.31,-129.5 223.97,-134 219.64,-134 219.64,-134 219.64,-134 223.97,-134 219.31,-138.5 229.31,-134"/>
<polygon fill="black" stroke="black" points="349.78,-134 359.78,-138.5 355.12,-134 359.45,-134 359.45,-134 359.45,-134 355.12,-134 359.78,-129.5 349.78,-134"/>
<text text-anchor="middle" x="289.5" y="-136.9" font-family="Roboto" font-size="8.00"> watch_providers (movies)</text>
</g>
<!-- movies_models_Emotion -->
<g id="node4" class="node">
<title>movies_models_Emotion</title>
<polygon fill="white" stroke="none" points="384.88,-274.12 384.88,-327.88 517.88,-327.88 517.88,-274.12 384.88,-274.12"/>
<polygon fill="#1b563f" stroke="none" points="385.88,-304.12 385.88,-326.88 516.88,-326.88 516.88,-304.12 385.88,-304.12"/>
<text text-anchor="start" x="405.62" y="-313.38" font-family="Roboto" font-size="8.00"> &#160;&#160;&#160;&#160;&#160;</text>
<text text-anchor="start" x="419.12" y="-313.38" font-family="Roboto" font-weight="bold" font-size="10.00" fill="white"> &#160;&#160;&#160;&#160;&#160;Emotion &#160;&#160;&#160;&#160;&#160;</text>
<text text-anchor="start" x="387.88" y="-295.52" font-family="Roboto" font-size="8.00"> &#160;&#160;&#160;&#160;&#160;</text>
<text text-anchor="start" x="401.38" y="-295.52" font-family="Roboto" font-weight="bold" font-size="8.00">id</text>
<text text-anchor="start" x="408.88" y="-295.52" font-family="Roboto" font-size="8.00"> &#160;&#160;&#160;&#160;&#160;</text>
<text text-anchor="start" x="439.12" y="-295.52" font-family="Roboto" font-size="8.00"> &#160;&#160;&#160;&#160;&#160;</text>
<text text-anchor="start" x="452.62" y="-295.52" font-family="Roboto" font-weight="bold" font-size="8.00">IntegerField</text>
<text text-anchor="start" x="501.38" y="-295.52" font-family="Roboto" font-size="8.00"> &#160;&#160;&#160;&#160;&#160;</text>
<text text-anchor="start" x="387.88" y="-281.02" font-family="Roboto" font-size="8.00"> &#160;&#160;&#160;&#160;&#160;</text>
<text text-anchor="start" x="401.38" y="-281.02" font-family="Roboto" font-size="8.00">name</text>
<text text-anchor="start" x="421.62" y="-281.02" font-family="Roboto" font-size="8.00"> &#160;&#160;&#160;&#160;&#160;</text>
<text text-anchor="start" x="439.12" y="-281.02" font-family="Roboto" font-size="8.00"> &#160;&#160;&#160;&#160;&#160;</text>
<text text-anchor="start" x="452.62" y="-281.02" font-family="Roboto" font-size="8.00">CharField</text>
<text text-anchor="start" x="485.62" y="-281.02" font-family="Roboto" font-size="8.00"> &#160;&#160;&#160;&#160;&#160;</text>
<polygon fill="none" stroke="black" points="384.88,-274.12 384.88,-327.88 517.88,-327.88 517.88,-274.12 384.88,-274.12"/>
</g>
<!-- movies_models_EmotionColor -->
<g id="node5" class="node">
<title>movies_models_EmotionColor</title>
<polygon fill="white" stroke="none" points="33.75,-274.12 33.75,-327.88 201.25,-327.88 201.25,-274.12 33.75,-274.12"/>
<polygon fill="#1b563f" stroke="none" points="34.75,-304.12 34.75,-326.88 200.25,-326.88 200.25,-304.12 34.75,-304.12"/>
<text text-anchor="start" x="58.62" y="-313.38" font-family="Roboto" font-size="8.00"> &#160;&#160;&#160;&#160;&#160;</text>
<text text-anchor="start" x="72.12" y="-313.38" font-family="Roboto" font-weight="bold" font-size="10.00" fill="white"> &#160;&#160;&#160;&#160;&#160;EmotionColor &#160;&#160;&#160;&#160;&#160;</text>
<text text-anchor="start" x="36.75" y="-295.52" font-family="Roboto" font-size="8.00"> &#160;&#160;&#160;&#160;&#160;</text>
<text text-anchor="start" x="50.25" y="-295.52" font-family="Roboto" font-weight="bold" font-size="8.00">color_id</text>
<text text-anchor="start" x="84" y="-295.52" font-family="Roboto" font-size="8.00"> &#160;&#160;&#160;&#160;&#160;</text>
<text text-anchor="start" x="122.5" y="-295.52" font-family="Roboto" font-size="8.00"> &#160;&#160;&#160;&#160;&#160;</text>
<text text-anchor="start" x="136" y="-295.52" font-family="Roboto" font-weight="bold" font-size="8.00">IntegerField</text>
<text text-anchor="start" x="184.75" y="-295.52" font-family="Roboto" font-size="8.00"> &#160;&#160;&#160;&#160;&#160;</text>
<text text-anchor="start" x="36.75" y="-281.02" font-family="Roboto" font-size="8.00"> &#160;&#160;&#160;&#160;&#160;</text>
<text text-anchor="start" x="50.25" y="-281.02" font-family="Roboto" font-size="8.00">emotions_color</text>
<text text-anchor="start" x="105" y="-281.02" font-family="Roboto" font-size="8.00"> &#160;&#160;&#160;&#160;&#160;</text>
<text text-anchor="start" x="122.5" y="-281.02" font-family="Roboto" font-size="8.00"> &#160;&#160;&#160;&#160;&#160;</text>
<text text-anchor="start" x="136" y="-281.02" font-family="Roboto" font-size="8.00">JSONField</text>
<text text-anchor="start" x="171.25" y="-281.02" font-family="Roboto" font-size="8.00"> &#160;&#160;&#160;&#160;&#160;</text>
<polygon fill="none" stroke="black" points="33.75,-274.12 33.75,-327.88 201.25,-327.88 201.25,-274.12 33.75,-274.12"/>
</g>
<!-- movies_models_EmotionColor&#45;&gt;movies_models_Genre -->
<g id="edge4" class="edge">
<title>movies_models_EmotionColor&#45;&gt;movies_models_Genre</title>
<path fill="none" stroke="black" d="M219.23,-276.72C266.53,-265.32 322.24,-251.89 367.12,-241.07"/>
<polygon fill="black" stroke="black" points="219.23,-276.72 208.46,-274.69 214.05,-277.97 209.84,-278.98 209.84,-278.98 209.84,-278.98 214.05,-277.97 210.57,-283.44 219.23,-276.72"/>
<polygon fill="black" stroke="black" points="367.06,-241.08 377.84,-243.11 372.25,-239.83 376.46,-238.82 376.46,-238.82 376.46,-238.82 372.25,-239.83 375.73,-234.37 367.06,-241.08"/>
<text text-anchor="middle" x="289.5" y="-273.42" font-family="Roboto" font-size="8.00"> genres_id (emotion_colors)</text>
</g>
<!-- movies_models_EmotionColor&#45;&gt;movies_models_Emotion -->
<g id="edge3" class="edge">
<title>movies_models_EmotionColor&#45;&gt;movies_models_Emotion</title>
<path fill="none" stroke="black" d="M219.54,-301C266.69,-301 322.13,-301 366.86,-301"/>
<polygon fill="black" stroke="black" points="219.52,-301 209.52,-296.5 214.19,-301 209.86,-301 209.86,-301 209.86,-301 214.19,-301 209.52,-305.5 219.52,-301"/>
<polygon fill="black" stroke="black" points="366.77,-301 376.77,-305.5 372.11,-301 376.44,-301 376.44,-301 376.44,-301 372.11,-301 376.77,-296.5 366.77,-301"/>
<text text-anchor="middle" x="289.5" y="-303.9" font-family="Roboto" font-size="8.00"> emotion_id (emotion_colors)</text>
</g>
</g>
</svg>
